<svg width="942" height="963" viewBox="0 0 942 963" fill="none" xmlns="http://www.w3.org/2000/svg">
<path d="M1168.08 2.6543C1166.86 5.24966 1165.15 6.42937 1162.95 6.19342C1160.51 5.01371 1158.31 4.54183 1157.09 4.30589C1155.87 4.06995 1153.67 4.54183 1150.25 5.24966C1146.83 6.19342 1144.63 6.90125 1143.9 7.37313C1140.48 9.96849 1139.25 12.5639 1140.72 15.1592C1141.21 16.5749 1142.43 18.6983 1143.65 21.5296C1143.65 22.2375 1142.67 23.4172 1141.21 25.3047C1139.5 26.9563 1138.52 27.6641 1137.79 27.6641C1137.3 27.6641 1135.1 26.0125 1130.46 22.9453C1127.04 20.3499 1125.33 20.114 1125.57 22.0015C1125.57 22.7094 1125.08 22.7094 1124.11 22.0015C1122.88 21.0578 1122.15 20.8218 1121.91 21.2937C1122.88 22.4734 1123.37 23.1812 1122.88 23.8891C1119.46 23.8891 1117.51 24.3609 1116.78 24.5969L1109.45 29.5517C1109.45 29.7876 1109.45 30.2595 1109.69 30.4954C1109.45 30.7314 1109.69 31.2033 1109.69 31.6751L1105.78 31.4392C1105.29 31.9111 1105.05 32.6189 1105.29 33.5627C1105.78 34.5064 1105.78 35.2143 1105.78 35.4502C1105.54 35.9221 1104.32 36.8659 1102.12 38.2815C1099.67 39.9331 1098.21 40.6409 1097.96 40.405C1096.99 40.405 1096.01 39.6972 1094.79 38.0456C1093.56 36.394 1092.59 35.4502 1092.1 35.2143L1088.43 34.9783C1088.19 34.7424 1087.7 33.5627 1086.97 31.4392C1086.23 29.5517 1085.01 28.6079 1083.06 29.0798H1078.66C1077.68 29.0798 1076.22 29.7876 1074.75 31.2033C1072.8 32.6189 1071.33 33.3267 1070.6 33.3267C1069.62 33.5627 1068.15 32.383 1066.2 30.2595C1063.76 27.9001 1062.05 26.7204 1061.07 26.7204C1058.38 26.0125 1054.23 26.9563 1049.34 29.0798C1043.72 31.2033 1039.81 32.383 1037.37 32.147C1025.4 26.7204 1019.29 24.125 1018.8 24.3609C1017.09 25.3047 1016.11 27.6641 1015.38 31.2033C1014.89 34.5064 1013.67 36.8659 1011.96 38.0456C1010.49 38.7534 1008.05 39.2253 1004.38 38.9893C1000.23 38.9893 997.544 39.2253 996.322 39.9331C991.924 41.3488 989.237 43.2363 987.771 45.3598C987.282 46.3035 987.282 47.7192 988.015 49.6067C988.748 51.9661 988.992 53.3818 988.992 54.0896C988.748 55.2693 987.771 57.1569 986.305 59.9882C985.083 62.5835 984.106 64.4711 984.106 65.8867C984.106 66.5945 984.35 68.2461 984.594 71.5493C984.839 73.4368 984.594 75.5603 983.861 77.2119C982.884 78.8635 981.662 80.0432 979.952 80.987C977.753 81.9307 976.531 82.8745 975.798 83.5823L975.066 86.4136C974.577 86.1777 974.332 86.1777 974.088 86.1777L970.912 85.9418C969.69 86.6496 968.957 87.8293 968.957 89.4809C968.713 91.6044 968.713 92.7841 968.469 93.02C965.781 92.5481 964.071 92.0762 963.826 92.0762C961.139 93.02 959.184 93.7278 958.207 93.9638C952.099 98.4467 947.212 101.042 943.547 101.75H936.706C935.973 102.458 936.217 103.401 938.172 105.053C940.371 106.705 941.348 107.648 941.348 107.884C941.348 108.356 939.882 109.536 937.195 110.952C936.706 112.131 937.195 114.019 938.416 116.85C938.416 117.086 936.95 118.03 934.263 119.681C926.933 125.58 922.779 128.411 922.291 128.647C919.847 127.232 918.137 126.76 917.16 126.996C913.983 131.007 912.273 132.894 911.784 132.894C911.296 129.827 910.563 127.939 910.074 127.232C909.341 126.288 907.875 125.108 905.188 123.692C902.011 122.277 900.301 121.333 899.08 121.569C898.347 121.569 896.148 122.041 892.971 123.221C890.284 124.164 888.085 124.164 886.13 123.457C882.221 118.974 879.533 116.85 878.067 116.85C877.579 116.85 876.846 117.086 875.38 117.794C875.217 117.794 875.135 117.873 875.135 118.03" stroke="url(#paint0_linear_678_23502)" stroke-width="2.40458" stroke-linecap="round" stroke-linejoin="round"/>
<path d="M356.672 15.8671C355.695 15.8671 351.541 15.1592 344.455 13.5076C337.126 11.3842 332.972 10.2045 332.239 9.26069C331.017 5.9575 330.04 3.59809 328.818 2.65432C325.154 3.59809 323.443 3.1262 323.932 1.47461" stroke="url(#paint1_linear_678_23502)" stroke-width="2.40458" stroke-linecap="round" stroke-linejoin="round"/>
<path d="M356.671 15.8678C352.762 8.55364 350.807 4.77857 350.563 4.54263C350.074 3.36292 349.83 2.41915 350.074 1.94727" stroke="url(#paint2_linear_678_23502)" stroke-width="2.40458" stroke-linecap="round" stroke-linejoin="round"/>
<path d="M292.417 1.47461C292.906 2.41838 292.417 3.1262 291.44 4.06997C291.44 5.01374 290.951 6.90127 289.729 9.26069C289.729 10.6763 290.462 12.092 291.928 13.2717C293.394 14.6874 294.127 15.8671 294.127 16.5749V31.6752C294.372 32.8549 295.593 33.3268 297.548 33.5627C299.503 33.7986 300.48 34.7424 300.236 36.394C300.236 37.3378 298.525 40.405 295.593 45.1238C292.417 49.8427 291.195 52.438 291.195 52.9099C291.44 53.3818 291.684 53.6178 292.417 53.6178C294.616 54.0896 297.304 55.0334 300.236 56.685C303.412 58.5725 304.878 59.7522 304.634 60.4601L302.435 63.0554C301.457 65.8867 302.19 68.4821 304.634 70.8415C306.099 72.0212 308.054 73.9088 310.986 76.2682L310.742 82.4027" stroke="url(#paint3_linear_678_23502)" stroke-width="2.40458" stroke-linecap="round" stroke-linejoin="round"/>
<path d="M448.294 29.7892C441.697 32.1486 438.033 31.9127 436.811 29.0814C436.322 27.1938 436.078 26.0141 435.834 25.3063C435.345 23.6547 434.368 22.9469 432.902 22.7109C431.436 23.6547 430.458 24.1266 429.481 24.1266C428.504 24.1266 427.526 23.4188 427.282 22.0031C427.038 20.1156 426.793 19.1718 426.549 18.9359L421.174 16.3405C418.486 14.9249 417.509 13.5092 418.731 11.8576C418.975 11.1498 420.93 10.442 424.106 9.97008C427.038 9.4982 428.504 8.55443 428.748 6.90284C428.748 5.25125 427.282 3.59965 424.106 1.24023" stroke="url(#paint4_linear_678_23502)" stroke-width="2.40458" stroke-linecap="round" stroke-linejoin="round"/>
<path d="M385.504 1.47461C384.771 2.65432 383.55 3.1262 382.084 2.89026H378.907C377.93 3.36214 376.22 5.48562 374.021 9.02475C372.066 12.5639 370.356 14.2155 369.134 14.4514" stroke="url(#paint5_linear_678_23502)" stroke-width="2.40458" stroke-linecap="round" stroke-linejoin="round"/>
<path d="M364.979 1.47461C364.246 2.89026 365.223 3.83403 367.911 4.54185C368.888 5.9575 369.377 9.26069 369.133 14.4514" stroke="url(#paint6_linear_678_23502)" stroke-width="2.40458" stroke-linecap="round" stroke-linejoin="round"/>
<path d="M875.134 118.031C874.645 118.031 873.913 117.323 873.424 115.908C873.913 111.189 873.913 108.122 872.935 106.706C870.248 105.762 868.782 105.054 868.782 104.347C870.248 101.515 871.469 99.3918 871.469 98.2121C869.515 93.2573 868.293 89.9541 867.804 88.3025C869.026 82.1681 868.537 78.6289 866.583 77.2133C865.361 76.5055 861.208 76.7414 853.878 78.393C846.303 79.8086 841.661 80.2805 840.195 79.5727C838.241 79.1008 836.042 76.9773 833.598 73.2023C830.666 68.7194 828.712 66.3599 827.49 65.6521C825.535 64.4724 823.092 63.7646 819.916 63.5286C816.007 63.2927 813.808 63.0568 812.83 62.8208C814.052 61.6411 812.83 60.9333 809.165 60.4614C807.211 59.9895 805.501 57.866 804.523 53.855C803.546 49.844 802.569 47.9565 801.347 47.7206C787.176 43.0017 778.136 41.3501 774.96 43.2377C774.471 44.6533 773.494 45.833 772.028 46.069C771.295 46.3049 770.073 46.069 767.63 45.833C765.431 45.3611 764.209 45.1252 763.965 44.6533C763.72 42.5298 763.476 41.3501 762.743 40.8782C761.033 39.4626 755.902 38.5188 747.595 37.811C739.532 37.1032 734.646 35.9235 733.668 34.2719C732.935 26.4858 730.736 22.9467 727.316 23.4185C725.361 25.778 723.895 26.9577 722.918 27.1936C721.696 27.4296 718.031 26.9577 712.167 25.542C707.036 24.5983 703.371 25.0701 700.44 27.1936C699.218 28.1374 698.974 29.3171 699.218 30.7327C699.707 32.1484 699.707 33.0922 699.218 33.3281C697.263 34.7438 692.621 35.2156 685.291 34.5078C677.473 33.8 672.097 34.0359 669.654 35.2156C668.188 35.9235 664.523 38.0469 659.148 42.0579C653.284 46.069 650.352 48.6643 649.619 49.6081C649.131 50.5519 648.642 52.4394 648.642 55.7426C648.398 58.102 647.665 59.9895 645.71 61.1692C643.267 61.4052 641.556 61.8771 640.824 62.113C635.693 64.2365 632.272 65.4162 630.562 66.124C627.874 66.8318 623.965 67.3037 618.834 67.3037" stroke="url(#paint7_linear_678_23502)" stroke-width="2.40458" stroke-linecap="round" stroke-linejoin="round"/>
<path d="M875.135 118.031C875.135 118.975 875.135 121.334 874.647 124.638C873.914 128.177 873.669 130.064 873.18 130.772C871.47 130.772 870.493 131.008 870.248 131.716C870.004 132.424 870.004 135.255 870.737 140.446C871.47 145.401 871.47 148.704 870.982 150.119C869.76 153.658 866.339 157.669 860.475 162.388C860.231 163.332 861.453 164.748 863.896 166.635C866.584 168.287 867.805 169.467 867.805 170.41C867.805 170.41 867.561 170.41 866.584 170.646H865.606C859.009 171.118 855.345 173.714 854.612 178.196C854.367 179.848 854.611 181.971 855.589 184.803C856.566 187.87 857.055 189.994 856.81 191.409C856.81 191.645 856.566 192.589 856.077 194.712C855.589 195.892 855.589 197.072 856.566 198.251C857.788 199.903 860.231 200.611 864.14 200.611C867.805 200.375 870.004 200.847 870.737 201.791C871.47 202.262 871.47 202.498 871.47 202.734L869.027 202.97C869.271 204.622 869.027 205.566 869.027 206.273C868.538 207.217 866.828 209.577 863.652 213.352C861.208 215.947 860.475 218.542 861.208 221.138C861.697 223.969 864.385 231.283 868.783 242.609C871.959 250.395 873.669 258.181 873.669 265.967C873.913 268.562 874.646 273.989 876.357 282.247C878.556 283.426 883.687 283.662 891.749 283.191C899.568 282.483 904.943 282.719 907.386 284.134C908.852 284.842 909.83 286.73 910.074 290.033C912.273 294.28 913.25 296.403 913.495 296.639C913.739 302.066 911.296 308.436 905.92 316.222C899.324 324.48 894.681 330.615 892.238 333.918C886.13 342.412 883.442 346.659 883.442 346.895" stroke="url(#paint8_linear_678_23502)" stroke-width="2.40458" stroke-linecap="round" stroke-linejoin="round"/>
<path d="M883.442 346.895H884.664L885.641 347.367C886.13 347.367 897.369 349.726 919.114 354.445C921.557 355.153 925.222 356.096 930.842 357.748C935.728 358.928 939.637 359.636 942.814 359.636C947.212 359.872 953.808 358.692 962.116 356.332C971.4 353.501 977.752 352.085 981.417 351.614C982.883 351.614 986.304 352.085 991.679 353.265C996.566 354.209 999.742 354.445 1001.45 353.501C1001.94 353.265 1002.67 352.085 1003.41 349.962C1004.14 349.254 1007.8 347.839 1014.16 345.951C1016.36 345.479 1020.02 345.007 1025.4 345.007C1030.04 344.771 1033.7 344.299 1036.15 343.356L1069.13 329.199C1075.48 326.604 1078.42 324.244 1077.93 321.885C1075 320.469 1073.04 319.526 1072.8 318.582C1074.51 310.324 1075.24 304.897 1074.75 303.01C1073.04 300.886 1072.06 299.235 1071.82 298.055C1071.57 297.111 1071.82 294.516 1072.31 290.269C1072.8 286.022 1073.53 283.426 1074.02 282.955C1074.51 282.483 1076.22 281.539 1078.9 280.359C1081.1 279.651 1082.57 278.236 1083.3 276.584C1083.79 273.989 1084.52 272.101 1084.77 271.157C1085.5 269.742 1086.72 268.326 1089.17 267.146C1092.1 265.495 1093.81 265.495 1094.54 266.439C1095.03 268.09 1095.52 268.798 1095.76 268.798C1097.72 269.27 1102.12 268.326 1108.96 266.675C1116.04 264.551 1120.2 262.899 1120.93 261.72C1121.91 260.304 1120.44 259.36 1116.78 258.653C1113.11 257.709 1111.4 256.529 1112.38 254.642H1113.6C1116.78 254.17 1119.71 252.518 1122.39 249.451L1125.82 248.979C1126.55 248.507 1127.53 247.091 1128.5 244.496C1129.24 242.137 1130.21 240.721 1130.95 240.249C1131.43 240.013 1133.88 240.485 1139.01 241.665C1143.41 242.608 1145.61 242.373 1145.36 240.957C1141.7 242.608 1140.23 242.373 1141.21 240.249C1141.45 239.069 1142.92 238.597 1145.61 238.597C1148.05 238.597 1149.76 238.833 1150.49 239.541C1150.74 239.777 1151.47 240.957 1152.45 243.316C1153.42 245.204 1154.4 246.148 1155.62 246.148C1157.58 246.384 1160.51 244.26 1164.91 239.541C1169.06 235.058 1171.26 231.755 1171.02 230.104C1171.02 228.924 1170.04 225.857 1168.08 220.902C1166.13 215.947 1165.15 212.644 1165.15 210.756C1165.15 209.341 1166.13 207.689 1168.33 205.802C1170.04 203.914 1171.02 202.262 1170.77 200.611C1169.31 199.195 1168.57 198.251 1168.57 197.544C1170.04 195.892 1170.77 194.476 1171.02 193.297C1170.53 190.465 1170.28 188.578 1170.53 187.398C1170.77 186.454 1171.02 185.511 1171.5 184.803" stroke="url(#paint9_linear_678_23502)" stroke-width="2.40458" stroke-linecap="round" stroke-linejoin="round"/>
<path d="M928.887 529.044C929.376 526.684 929.376 518.662 928.887 504.977C930.841 505.213 931.819 504.27 932.063 502.146V494.596C932.063 490.585 932.308 488.226 933.285 487.282C933.774 486.574 935.484 485.866 937.927 485.394C940.37 484.686 941.836 483.979 942.325 483.035C942.814 482.563 943.058 481.619 942.814 480.44C943.058 480.204 944.524 480.44 947.211 480.911C947.944 481.147 948.433 481.383 948.433 481.147C948.433 479.968 948.433 478.788 948.678 477.844C948.433 475.721 949.166 474.069 950.632 472.889C954.786 469.586 962.849 467.463 974.821 466.991C977.753 466.991 979.463 466.755 979.952 466.519V464.396L979.707 463.452V458.025L982.395 456.373C982.639 455.902 982.395 454.25 981.173 451.891C980.196 449.531 980.196 447.88 981.417 447.172L983.861 446.936C980.196 443.397 978.241 441.509 977.752 441.509C976.775 441.273 974.332 441.981 969.934 443.869C966.269 445.048 963.826 445.048 962.116 443.161C963.337 438.678 963.826 435.847 963.581 435.139C963.581 432.307 962.604 428.768 961.383 424.521C959.672 419.331 958.695 416.027 958.451 414.14V403.523C955.03 404.938 953.075 405.646 951.854 405.41C950.876 405.41 949.655 404.23 947.945 402.579C945.99 400.455 944.768 399.276 944.035 399.04C937.683 398.568 933.285 397.86 930.597 396.916C924.978 395.029 920.091 391.725 915.449 387.007C914.227 386.063 913.494 384.175 912.517 381.58C911.295 378.513 910.318 376.625 909.585 375.681C907.63 374.502 906.409 373.558 905.676 372.614C904.454 368.603 903.477 366.008 902.499 364.356C900.545 361.761 897.369 358.694 893.459 355.154C888.573 351.615 885.397 348.784 883.442 346.896" stroke="url(#paint10_linear_678_23502)" stroke-width="2.40458" stroke-linecap="round" stroke-linejoin="round"/>
<path d="M228.4 84.0561C232.554 82.4045 235.241 80.7529 236.463 79.3372C238.662 76.5059 240.372 74.6184 241.838 73.6746C241.838 73.6746 242.327 73.4387 242.571 72.9668C243.793 73.2027 245.747 74.1465 248.191 75.7981C249.657 75.7981 252.1 74.8543 255.032 73.2027C256.742 73.2027 259.43 74.1465 263.339 76.27C267.493 78.1575 270.18 79.3372 271.891 79.3372C273.357 79.5732 276.044 79.8091 280.442 80.0451C280.931 79.8091 282.152 78.8653 283.618 77.2138C284.351 76.27 285.817 75.7981 287.772 76.034C291.437 76.7419 292.903 78.6294 291.925 81.6966C290.948 85.4717 290.948 88.0671 292.17 89.4827C293.147 90.6624 293.88 90.6624 294.613 89.4827C294.857 89.0108 295.102 88.0671 295.59 86.8874C296.812 85.4717 299.744 84.0561 304.386 82.1685C308.051 82.8764 310.25 82.8764 310.739 82.4045" stroke="url(#paint11_linear_678_23502)" stroke-width="2.40458" stroke-linecap="round" stroke-linejoin="round"/>
<path d="M310.739 82.4043C310.006 84.2918 310.25 85.2356 311.472 85.7075C313.182 86.6512 314.404 87.3591 314.893 88.3028C315.87 90.1904 314.893 92.7857 311.961 96.0889C311.961 97.7405 313.915 98.4483 318.313 98.6843C319.535 99.628 320.023 101.044 319.29 102.931C318.557 105.527 318.069 106.942 318.313 107.414C318.557 109.538 319.779 110.717 321.734 111.189C324.421 111.425 325.887 111.661 326.132 111.897C327.109 112.841 327.842 114.964 328.819 118.267C329.797 121.807 330.285 123.93 330.041 125.346C330.041 126.054 329.797 127.233 329.064 128.649C329.552 129.121 331.995 129.357 336.882 128.885C338.592 129.593 340.791 131.244 343.235 133.604C344.701 135.019 347.388 135.727 351.542 135.491C359.849 135.491 364.002 135.727 363.758 136.435C363.514 138.087 361.804 139.03 358.627 139.502C354.962 140.21 353.008 140.682 352.519 141.154C350.809 143.277 351.542 147.288 354.718 152.951C358.139 158.849 358.872 162.625 357.406 164.276C356.428 165.456 354.718 165.928 352.519 165.22C350.564 164.748 349.343 164.748 349.343 164.984C348.854 168.759 348.366 170.882 347.633 171.59H344.212V174.422C343.235 175.129 342.257 175.601 341.524 176.309C340.303 177.253 339.814 178.197 340.058 178.905C343.235 183.151 343.968 185.511 342.502 186.219C342.013 186.455 340.791 185.983 338.592 185.039C336.638 184.095 335.66 184.095 335.66 184.803V188.106C335.172 188.814 334.194 189.522 332.729 190.23C331.996 191.881 332.484 193.061 334.439 194.005C336.638 194.949 337.859 195.892 337.859 196.128C338.104 197.544 336.882 199.903 334.683 203.207C332.24 206.274 331.263 208.397 331.507 209.577C331.751 210.285 333.462 211.464 336.638 212.88C337.371 213.352 338.348 215.476 340.058 219.251C341.28 222.318 342.502 224.205 343.723 224.677C344.456 225.149 345.678 224.677 347.388 223.498C348.366 222.79 349.343 223.262 350.32 225.149C350.32 225.385 350.564 225.621 350.809 226.093C350.32 226.565 349.343 227.273 347.877 227.98H352.519C353.252 228.216 354.474 230.34 356.673 234.115C358.627 237.654 359.605 239.778 359.605 240.485C359.605 241.193 358.383 242.137 355.695 243.081C353.985 244.024 353.985 244.496 356.184 244.732C356.428 244.968 356.917 244.968 357.894 245.204C358.139 245.44 357.65 245.912 356.917 246.856C355.94 248.035 355.695 248.743 356.184 249.215C356.673 249.687 358.383 250.159 361.559 250.159C364.98 250.159 367.179 250.395 368.156 250.867C369.378 251.811 373.776 255.114 381.105 261.012C387.214 265.967 391.367 268.798 393.078 269.506C394.543 269.742 396.987 269.506 400.652 268.562C401.873 269.27 403.828 273.281 406.271 281.067C406.76 282.483 409.203 284.606 412.868 287.91C416.289 290.741 418.243 293.1 418.732 294.752C418.732 295.46 417.022 301.122 413.112 311.74L413.357 326.368H425.573L426.062 346.187L438.767 358.22L440.722 366.006L443.898 368.13" stroke="url(#paint12_linear_678_23502)" stroke-width="2.40458" stroke-linecap="round" stroke-linejoin="round"/>
<path d="M373.286 402.814L405.538 404.938L409.936 414.14L410.913 418.387L414.334 423.577L441.698 423.813" stroke="url(#paint13_linear_678_23502)" stroke-width="2.40458" stroke-linecap="round" stroke-linejoin="round"/>
<path d="M373.287 402.813C376.219 399.274 378.417 395.971 380.128 393.14C381.105 391.252 383.06 388.185 385.747 384.174C388.679 378.275 391.611 372.613 394.543 366.478C395.276 365.77 397.475 365.063 401.384 364.119L414.089 362.703L422.885 366.478" stroke="url(#paint14_linear_678_23502)" stroke-width="2.40458" stroke-linecap="round" stroke-linejoin="round"/>
<path d="M113.811 278.471L156.324 287.672L191.752 311.739L214.474 321.884L307.563 399.037L373.288 402.812" stroke="url(#paint15_linear_678_23502)" stroke-width="2.40458" stroke-linecap="round" stroke-linejoin="round"/>
<path d="M547.981 577.174L544.072 580.006L537.964 578.118L532.588 572.691" stroke="url(#paint16_linear_678_23502)" stroke-width="2.40458" stroke-linecap="round" stroke-linejoin="round"/>
<path d="M232.308 907.964C237.439 905.605 240.86 903.717 242.326 902.066C242.57 898.999 242.814 897.347 243.792 896.403C243.303 901.83 245.013 900.414 248.923 892.628C249.411 891.684 249.167 891.213 247.945 890.741C246.479 890.269 245.746 890.269 245.746 890.033C245.502 889.797 245.746 889.561 245.746 889.089V887.202L245.991 886.258V883.427C245.746 878.944 245.991 876.348 246.479 875.404C249.167 874.461 250.389 873.989 250.389 873.517C250.633 872.573 250.144 872.101 249.167 871.865C247.945 871.393 247.457 870.922 247.212 870.686C246.968 869.742 248.434 868.326 251.61 866.203C254.542 864.315 256.497 863.135 257.718 863.135C259.673 862.664 261.872 863.843 264.56 866.203C267.492 868.562 269.691 870.214 271.157 870.214C271.645 870.45 273.111 870.214 275.799 869.742C275.799 869.742 275.799 870.45 275.554 871.393C275.31 871.865 275.799 872.337 277.02 872.337C277.509 872.337 278.486 871.394 279.464 869.742C281.663 870.45 282.884 870.686 283.373 870.45L291.924 867.382H296.567L299.987 868.326H326.863L332.727 870.686L369.621 874.697L384.525 871.158L395.275 885.078H402.849L411.645 877.292L417.265 866.439L438.277 838.598L474.926 816.891L540.651 808.397L584.63 799.195" stroke="url(#paint17_linear_678_23502)" stroke-width="2.40458" stroke-linecap="round" stroke-linejoin="round"/>
<path d="M584.633 799.195L613.464 857.709L611.753 864.551L620.06 870.922L629.834 891.684" stroke="url(#paint18_linear_678_23502)" stroke-width="2.40458" stroke-linecap="round" stroke-linejoin="round"/>
<path d="M731.229 527.625C728.542 527.389 727.32 526.917 727.076 526.682C726.587 525.266 726.343 522.67 726.832 518.895C727.076 514.648 727.076 512.053 726.343 511.817C726.099 511.345 724.633 511.109 722.434 511.109" stroke="url(#paint19_linear_678_23502)" stroke-width="2.40458" stroke-linecap="round" stroke-linejoin="round"/>
<path d="M698.49 645.363L718.769 673.204L698.734 754.132L584.633 799.197" stroke="url(#paint20_linear_678_23502)" stroke-width="2.40458" stroke-linecap="round" stroke-linejoin="round"/>
<path d="M101.838 229.867L177.091 191.644L179.29 189.993C183.932 186.217 186.864 180.083 187.841 171.117C188.086 161.208 188.574 154.129 189.307 150.118C193.461 143.748 194.927 138.321 193.705 134.074C191.018 127.94 189.796 122.985 189.796 119.682C189.796 117.558 190.04 115.435 190.773 113.311C191.751 109.3 194.438 106.941 198.592 106.233C205.677 104.582 209.587 103.874 209.831 103.638C210.808 103.402 213.985 100.335 219.36 94.908C224.979 89.4814 227.911 86.4141 228.4 85.4703V84.0547" stroke="url(#paint21_linear_678_23502)" stroke-width="2.40458" stroke-linecap="round" stroke-linejoin="round"/>
<path d="M7.28442 123.222C7.77308 123.222 9.23906 124.166 11.1937 126.053C13.3926 127.705 14.6143 128.413 15.3473 128.177C16.0802 127.941 16.8132 126.053 17.3019 122.514C18.0349 121.57 19.7452 121.098 22.4328 120.627C22.9215 120.155 23.4101 117.559 23.6544 112.841C23.6544 112.841 25.3647 112.841 29.0296 113.312C31.9616 113.548 33.6719 113.312 34.4049 112.605C34.6492 112.369 34.4049 111.661 33.9162 110.717C31.9616 106.942 30.9843 104.347 30.7399 102.459C30.7399 100.572 31.2286 97.7402 32.6946 93.4933C32.9389 93.0214 33.4275 91.3698 34.4049 88.7745C42.9563 91.1339 47.1099 93.0214 47.3543 93.9652C47.3543 94.2011 46.8656 94.9089 46.3769 96.3246C46.1326 97.7403 46.6213 98.2121 48.0872 97.9762L49.7975 96.0887C51.0192 95.8527 52.7295 96.0887 55.4171 96.7965C57.8604 97.7403 59.815 97.9762 60.7923 97.9762C62.0139 97.5043 67.3891 95.3808 76.4293 91.3698C83.5148 88.0666 88.89 87.1229 92.7993 88.5385C94.2652 89.0104 96.2198 90.4261 98.6631 92.7855C101.106 94.9089 103.061 96.3246 104.527 97.0324C109.169 98.92 116.255 99.3918 126.272 97.9762C129.449 97.5043 134.335 97.0324 141.421 96.3246C144.841 95.3808 150.461 93.0214 158.035 89.0104C164.876 85.4713 170.496 83.1119 174.649 82.404C177.581 81.9322 182.223 81.9321 188.576 82.8759C195.173 83.5837 199.815 83.8197 202.991 83.3478C208.122 82.8759 211.787 81.9322 213.742 81.2243C214.23 80.9884 217.162 79.1008 222.782 75.5617C223.026 75.0898 223.759 75.5617 224.492 76.9774L227.668 78.8649L228.401 84.0556" stroke="url(#paint22_linear_678_23502)" stroke-width="2.40458" stroke-linecap="round" stroke-linejoin="round"/>
<path d="M-10.0625 248.977C-9.32952 250.392 -8.84085 251.1 -8.10787 251.1C-7.86354 251.1 -7.13057 250.864 -5.90893 250.392C-3.46565 249.92 -1.26668 250.392 0.443618 251.572C1.66526 252.752 3.37556 255.111 5.33018 258.65C7.77346 260.538 11.927 262.661 17.5466 265.021C23.8991 267.38 28.5414 268.56 30.9846 268.324C34.8939 267.852 47.5989 260.538 69.5885 246.145L101.84 229.865" stroke="url(#paint23_linear_678_23502)" stroke-width="2.40458" stroke-linecap="round" stroke-linejoin="round"/>
<path d="M-9.33154 229.158C1.41889 221.136 6.79411 216.889 7.03843 216.889C7.03843 216.181 6.30543 215.709 4.35081 215.002C2.39618 214.294 2.39619 213.114 3.86216 211.462C5.57246 209.103 7.28275 207.687 9.23737 206.979C15.1012 207.687 18.2775 207.923 18.5218 207.451C18.7662 206.98 17.5445 205.8 15.3456 203.912C15.3456 202.733 17.5445 200.845 21.6981 197.778C25.8517 195.182 27.8063 193.531 27.8063 193.295C26.829 192.823 26.3403 192.351 26.3403 191.879C26.829 188.34 26.5847 185.509 25.6073 183.857C20.9651 182.206 18.5218 181.026 18.2775 180.082C20.7208 178.431 21.9424 177.487 21.9424 177.015C21.9424 175.363 19.7435 174.42 15.5899 174.184C10.459 174.42 7.52707 174.42 6.0611 174.184" stroke="url(#paint24_linear_678_23502)" stroke-width="2.40458" stroke-linecap="round" stroke-linejoin="round"/>
<path d="M113.808 278.471L107.944 282.246L35.3789 301.121L68.8519 342.411L56.8798 348.545L50.7716 360.814L23.1625 365.533L14.8553 377.094L-2.73628 391.487C-25.4588 386.296 -38.4082 382.993 -41.5845 382.049" stroke="url(#paint25_linear_678_23502)" stroke-width="2.40458" stroke-linecap="round" stroke-linejoin="round"/>
<path d="M101.838 229.865L109.901 263.605L106.724 264.785L108.679 272.099L114.054 270.683L113.81 278.469" stroke="url(#paint26_linear_678_23502)" stroke-width="2.40458" stroke-linecap="round" stroke-linejoin="round"/>
<path d="M12.1688 678.16C-34.2536 676.037 -80.6759 673.441 -127.587 670.138C-151.775 668.486 -173.032 667.071 -191.601 665.419L-189.646 659.993L-192.09 657.397L-197.953 665.183C-302.526 655.981 -380.955 648.431 -432.997 642.297" stroke="url(#paint27_linear_678_23502)" stroke-width="2.40458" stroke-linecap="round" stroke-linejoin="round"/>
<path d="M70.562 840.014C66.8971 843.553 62.2548 849.215 57.1239 857.473C56.6353 857.709 56.3909 857.945 55.658 858.181C54.6806 857.237 53.7033 856.53 53.2147 856.766C52.2374 858.417 51.5044 859.597 51.0157 859.833C51.0157 860.069 50.7714 859.597 50.7714 858.417C50.2827 857.237 49.7941 856.766 48.5725 857.237C46.3735 859.125 44.6632 860.305 43.4416 860.777C42.7086 861.012 41.7313 860.777 40.754 860.069C40.021 859.597 39.0437 859.597 38.0663 860.069C37.822 860.069 37.089 861.012 35.8674 862.428C35.1344 863.136 34.1571 863.608 32.6911 864.08C31.9581 864.316 30.0035 864.788 27.0716 865.495C26.8272 865.731 26.5829 867.619 26.3386 870.686C26.3386 873.281 25.3613 875.405 23.1623 876.585C20.9634 878 17.5428 877.764 12.9005 876.349C8.74696 875.169 6.54803 874.461 6.54803 874.697C6.3037 874.933 6.548 878 7.28098 883.191C7.28098 884.371 6.05936 886.73 3.8604 889.797C2.15011 892.629 1.41713 894.988 2.15011 896.876C2.39444 897.819 2.88309 899.471 3.8604 901.359C4.59339 903.246 4.83773 904.898 4.10475 906.313C3.37176 908.673 0.195481 915.515 -4.69108 927.076C-10.0663 938.873 -13.2426 945.48 -14.2199 946.659C-14.7085 947.367 -16.1745 948.311 -18.1291 949.727C-19.1064 951.142 -18.8621 956.805 -17.6405 966.478C-16.1745 976.624 -15.6858 982.758 -16.1745 985.118" stroke="url(#paint28_linear_678_23502)" stroke-width="2.40458" stroke-linecap="round" stroke-linejoin="round"/>
<path d="M-16.1721 985.116C-12.0185 983.7 -8.84229 983.464 -6.64334 984.172C-2.48976 985.116 0.197874 985.588 1.66384 985.824C3.61847 985.824 4.84011 985.116 5.32876 983.7C6.06175 981.341 6.55038 979.925 7.28336 979.453C9.72664 976.858 13.1473 978.274 16.8122 983.229C18.7668 985.824 21.2101 989.363 23.6534 994.082L38.8017 962.938C40.0234 963.409 41.245 965.297 42.4666 969.072C43.1996 969.544 44.9099 970.016 47.5975 970.252C50.2851 970.488 51.7511 970.96 52.2398 971.431C52.7284 971.903 53.7057 973.791 55.6603 977.566C56.882 980.161 58.5923 981.813 61.0356 982.285C63.2345 982.757 66.8994 982.285 72.0303 980.869C77.4055 979.453 80.5818 978.038 81.5591 976.386C81.8035 975.206 81.8035 974.499 82.0478 974.027C82.2921 973.319 83.0251 973.319 84.2467 973.791C85.4684 974.263 86.69 975.914 87.6673 978.274C88.4003 980.869 89.1333 982.285 90.1106 982.521C90.1106 982.757 91.0879 981.813 92.7982 980.161C93.5312 979.925 94.7528 980.161 96.4631 980.869C97.6848 980.633 99.8837 979.453 102.571 977.802C104.037 977.802 108.68 979.925 116.987 983.464C123.339 983.228 127.737 983.464 129.447 984.88C130.669 985.588 134.09 987.711 139.221 991.486C141.664 992.666 146.306 994.318 152.17 995.733C155.102 997.385 158.034 1000.92 160.966 1006.35C164.142 1012.49 166.585 1016.5 168.296 1017.91C169.762 1019.56 173.426 1022.16 179.29 1025.7C184.421 1028.53 187.842 1031.36 189.797 1033.72C190.529 1034.9 191.751 1037.26 193.217 1041.27C194.439 1045.05 195.905 1047.4 197.371 1048.35C200.547 1050.71 204.212 1053.78 207.877 1057.55L213.008 1063.21" stroke="url(#paint29_linear_678_23502)" stroke-width="2.40458" stroke-linecap="round" stroke-linejoin="round"/>
<path d="M369.131 14.4536C366.199 13.0379 364.245 12.3301 362.779 12.3301C360.091 14.2176 358.137 15.3973 356.671 15.8692" stroke="url(#paint30_linear_678_23502)" stroke-width="2.40458" stroke-linecap="round" stroke-linejoin="round"/>
<defs>
<linearGradient id="paint0_linear_678_23502" x1="1021.61" y1="2.6543" x2="1021.61" y2="132.894" gradientUnits="userSpaceOnUse">
<stop stop-color="#466378"/>
<stop offset="0.583333" stop-color="#466378" stop-opacity="0"/>
</linearGradient>
<linearGradient id="paint1_linear_678_23502" x1="340.261" y1="1.47461" x2="340.261" y2="15.8671" gradientUnits="userSpaceOnUse">
<stop stop-color="#466378"/>
<stop offset="0.583333" stop-color="#466378" stop-opacity="0"/>
</linearGradient>
<linearGradient id="paint2_linear_678_23502" x1="353.325" y1="1.94727" x2="353.325" y2="15.8678" gradientUnits="userSpaceOnUse">
<stop stop-color="#466378"/>
<stop offset="0.583333" stop-color="#466378" stop-opacity="0"/>
</linearGradient>
<linearGradient id="paint3_linear_678_23502" x1="300.358" y1="1.47461" x2="300.358" y2="82.4027" gradientUnits="userSpaceOnUse">
<stop stop-color="#466378"/>
<stop offset="0.583333" stop-color="#466378" stop-opacity="0"/>
</linearGradient>
<linearGradient id="paint4_linear_678_23502" x1="433.252" y1="1.24023" x2="433.252" y2="31.3979" gradientUnits="userSpaceOnUse">
<stop stop-color="#466378"/>
<stop offset="0.583333" stop-color="#466378" stop-opacity="0"/>
</linearGradient>
<linearGradient id="paint5_linear_678_23502" x1="377.319" y1="1.47461" x2="377.319" y2="14.4514" gradientUnits="userSpaceOnUse">
<stop stop-color="#466378"/>
<stop offset="0.583333" stop-color="#466378" stop-opacity="0"/>
</linearGradient>
<linearGradient id="paint6_linear_678_23502" x1="366.969" y1="1.47461" x2="366.969" y2="14.4514" gradientUnits="userSpaceOnUse">
<stop stop-color="#466378"/>
<stop offset="0.583333" stop-color="#466378" stop-opacity="0"/>
</linearGradient>
<linearGradient id="paint7_linear_678_23502" x1="746.984" y1="23.377" x2="746.984" y2="118.031" gradientUnits="userSpaceOnUse">
<stop stop-color="#466378"/>
<stop offset="0.583333" stop-color="#466378" stop-opacity="0"/>
</linearGradient>
<linearGradient id="paint8_linear_678_23502" x1="884.017" y1="118.031" x2="884.017" y2="346.895" gradientUnits="userSpaceOnUse">
<stop stop-color="#466378"/>
<stop offset="0.583333" stop-color="#466378" stop-opacity="0"/>
</linearGradient>
<linearGradient id="paint9_linear_678_23502" x1="1027.47" y1="184.803" x2="1027.47" y2="359.665" gradientUnits="userSpaceOnUse">
<stop stop-color="#466378"/>
<stop offset="0.583333" stop-color="#466378" stop-opacity="0"/>
</linearGradient>
<linearGradient id="paint10_linear_678_23502" x1="933.651" y1="346.896" x2="933.651" y2="529.044" gradientUnits="userSpaceOnUse">
<stop stop-color="#466378"/>
<stop offset="0.583333" stop-color="#466378" stop-opacity="0"/>
</linearGradient>
<linearGradient id="paint11_linear_678_23502" x1="269.569" y1="72.9668" x2="269.569" y2="90.3675" gradientUnits="userSpaceOnUse">
<stop stop-color="#466378"/>
<stop offset="0.583333" stop-color="#466378" stop-opacity="0"/>
</linearGradient>
<linearGradient id="paint12_linear_678_23502" x1="377.112" y1="82.4043" x2="377.112" y2="368.13" gradientUnits="userSpaceOnUse">
<stop stop-color="#466378"/>
<stop offset="0.583333" stop-color="#466378" stop-opacity="0"/>
</linearGradient>
<linearGradient id="paint13_linear_678_23502" x1="407.492" y1="402.814" x2="407.492" y2="423.813" gradientUnits="userSpaceOnUse">
<stop stop-color="#466378"/>
<stop offset="0.583333" stop-color="#466378" stop-opacity="0"/>
</linearGradient>
<linearGradient id="paint14_linear_678_23502" x1="398.086" y1="362.703" x2="398.086" y2="402.813" gradientUnits="userSpaceOnUse">
<stop stop-color="#466378"/>
<stop offset="0.583333" stop-color="#466378" stop-opacity="0"/>
</linearGradient>
<linearGradient id="paint15_linear_678_23502" x1="243.55" y1="278.471" x2="243.55" y2="402.812" gradientUnits="userSpaceOnUse">
<stop stop-color="#466378"/>
<stop offset="0.583333" stop-color="#466378" stop-opacity="0"/>
</linearGradient>
<linearGradient id="paint16_linear_678_23502" x1="540.285" y1="572.691" x2="540.285" y2="580.006" gradientUnits="userSpaceOnUse">
<stop stop-color="#466378"/>
<stop offset="0.583333" stop-color="#466378" stop-opacity="0"/>
</linearGradient>
<linearGradient id="paint17_linear_678_23502" x1="408.469" y1="799.195" x2="408.469" y2="907.964" gradientUnits="userSpaceOnUse">
<stop stop-color="#466378"/>
<stop offset="0.583333" stop-color="#466378" stop-opacity="0"/>
</linearGradient>
<linearGradient id="paint18_linear_678_23502" x1="607.233" y1="799.195" x2="607.233" y2="891.684" gradientUnits="userSpaceOnUse">
<stop stop-color="#466378"/>
<stop offset="0.583333" stop-color="#466378" stop-opacity="0"/>
</linearGradient>
<linearGradient id="paint19_linear_678_23502" x1="726.832" y1="511.109" x2="726.832" y2="527.625" gradientUnits="userSpaceOnUse">
<stop stop-color="#466378"/>
<stop offset="0.583333" stop-color="#466378" stop-opacity="0"/>
</linearGradient>
<linearGradient id="paint20_linear_678_23502" x1="651.701" y1="645.363" x2="651.701" y2="799.197" gradientUnits="userSpaceOnUse">
<stop stop-color="#466378"/>
<stop offset="0.583333" stop-color="#466378" stop-opacity="0"/>
</linearGradient>
<linearGradient id="paint21_linear_678_23502" x1="165.119" y1="84.0547" x2="165.119" y2="229.867" gradientUnits="userSpaceOnUse">
<stop stop-color="#466378"/>
<stop offset="0.583333" stop-color="#466378" stop-opacity="0"/>
</linearGradient>
<linearGradient id="paint22_linear_678_23502" x1="117.843" y1="75.3848" x2="117.843" y2="128.221" gradientUnits="userSpaceOnUse">
<stop stop-color="#466378"/>
<stop offset="0.583333" stop-color="#466378" stop-opacity="0"/>
</linearGradient>
<linearGradient id="paint23_linear_678_23502" x1="45.8886" y1="229.865" x2="45.8886" y2="268.353" gradientUnits="userSpaceOnUse">
<stop stop-color="#466378"/>
<stop offset="0.583333" stop-color="#466378" stop-opacity="0"/>
</linearGradient>
<linearGradient id="paint24_linear_678_23502" x1="9.23739" y1="174.184" x2="9.23739" y2="229.158" gradientUnits="userSpaceOnUse">
<stop stop-color="#466378"/>
<stop offset="0.583333" stop-color="#466378" stop-opacity="0"/>
</linearGradient>
<linearGradient id="paint25_linear_678_23502" x1="36.1119" y1="278.471" x2="36.1119" y2="391.487" gradientUnits="userSpaceOnUse">
<stop stop-color="#466378"/>
<stop offset="0.583333" stop-color="#466378" stop-opacity="0"/>
</linearGradient>
<linearGradient id="paint26_linear_678_23502" x1="107.946" y1="229.865" x2="107.946" y2="278.469" gradientUnits="userSpaceOnUse">
<stop stop-color="#466378"/>
<stop offset="0.583333" stop-color="#466378" stop-opacity="0"/>
</linearGradient>
<linearGradient id="paint27_linear_678_23502" x1="-210.414" y1="642.297" x2="-210.414" y2="678.16" gradientUnits="userSpaceOnUse">
<stop stop-color="#466378"/>
<stop offset="0.583333" stop-color="#466378" stop-opacity="0"/>
</linearGradient>
<linearGradient id="paint28_linear_678_23502" x1="25.9149" y1="840.014" x2="25.9149" y2="985.118" gradientUnits="userSpaceOnUse">
<stop stop-color="#466378"/>
<stop offset="0.583333" stop-color="#466378" stop-opacity="0"/>
</linearGradient>
<linearGradient id="paint29_linear_678_23502" x1="98.4178" y1="962.938" x2="98.4178" y2="1063.21" gradientUnits="userSpaceOnUse">
<stop stop-color="#466378"/>
<stop offset="0.583333" stop-color="#466378" stop-opacity="0"/>
</linearGradient>
<linearGradient id="paint30_linear_678_23502" x1="362.901" y1="12.3301" x2="362.901" y2="15.8692" gradientUnits="userSpaceOnUse">
<stop stop-color="#466378"/>
<stop offset="0.583333" stop-color="#466378" stop-opacity="0"/>
</linearGradient>
</defs>
</svg>
