<svg width="78" height="49" viewBox="0 0 78 49" fill="none" xmlns="http://www.w3.org/2000/svg">
<g clip-path="url(#clip0_738_2183)">
<path d="M66.8297 35.7033C65.4931 35.2352 64.1577 34.7605 62.8224 34.2884C62.6348 34.2223 62.5371 34.2832 62.4664 34.4777C62.0821 35.5399 61.6901 36.5995 61.2866 37.6539C61.1966 37.8887 61.248 38.0041 61.4678 38.104C61.9125 38.3076 62.325 38.5708 62.7247 38.8523C63.474 39.3788 64.1629 39.9676 64.6076 40.7938C64.7245 41.0104 64.7926 41.2412 64.8607 41.476C64.8942 41.5888 64.9147 41.7094 64.8903 41.8248C64.8659 41.9403 64.7862 42.0492 64.6731 42.0803C64.5729 42.1076 64.5369 42.0336 64.5253 41.9455C64.5137 41.8547 64.4945 41.7665 64.4752 41.6783C64.4636 41.6238 64.4598 41.5473 64.4199 41.5045C64.339 41.4189 64.2233 41.5265 64.1577 41.5823C61.2724 44.0919 57.3693 45.1294 53.6421 45.3927C52.8941 45.4459 52.1462 45.4874 51.3969 45.5146C50.9702 45.5302 50.5422 45.4964 50.1142 45.5146C49.7891 45.5289 48.8226 45.6858 49.5526 46.01C51.1296 46.7104 52.7271 47.3575 54.3966 47.7959C56.2871 48.2913 58.134 48.124 59.9024 47.2966C61.5989 46.5028 63.01 45.3175 64.3107 43.9687C65.6884 42.5394 66.2295 40.7665 66.3709 38.8756C66.4326 38.056 66.5598 37.2843 66.795 36.5139C66.849 36.3388 66.9004 36.1638 66.9595 35.9913C67.007 35.8499 66.9852 35.7578 66.8284 35.702L66.8297 35.7033Z" fill="#11292F"/>
<path d="M76.9777 43.3887C78.2925 40.0672 76.2426 37.6485 73.8829 37.6485H69.0287C67.25 37.6485 66.9788 35.8535 66.9788 35.8535L65.0446 37.961C65.0446 37.961 65.3157 41.5133 68.6033 41.5133H73.7673C76.7451 41.5133 76.9777 43.39 76.9777 43.39V43.3887Z" fill="#11292F"/>
<path d="M45.0337 42.6592C50.5716 40.3974 56.9219 40.4947 57.2766 40.4285C57.4282 40.4013 57.5452 40.3299 57.639 40.208C57.7881 40.0135 57.9423 39.8241 58.0888 39.6296C58.1557 39.5401 58.2186 39.4493 58.2726 39.3534C58.3921 39.1471 58.4975 38.9332 58.6209 38.7282C58.8355 38.3625 59.0579 38.0007 59.2802 37.6401C59.3329 37.5532 59.3882 37.465 59.4589 37.3937C59.608 37.2459 59.7313 37.0876 59.8033 36.8853C59.8316 36.8036 59.8136 36.7556 59.7403 36.7245C59.5835 36.6635 59.4306 36.5909 59.2699 36.5494C59.0412 36.491 58.8034 36.4625 58.5734 36.408C58.3125 36.3471 58.0554 36.2706 57.7958 36.2005C57.5979 36.1474 57.3987 36.0994 57.202 36.0397C56.8602 35.9373 56.5196 35.8296 56.1777 35.722C55.9425 35.6493 55.7099 35.5741 55.4747 35.5002C55.4387 35.4885 55.4015 35.482 55.368 35.4665C55.0827 35.3251 54.7974 35.1824 54.5134 35.0411C54.4877 35.0268 54.4633 35.0113 54.4376 34.9983C54.363 34.962 54.2898 34.9192 54.2114 34.8932C54.1085 34.8608 54.1021 34.8712 54.0738 34.9762C54.0661 35.0074 54.052 35.0372 54.0379 35.0644C53.9659 35.2019 53.8939 35.3381 53.8219 35.4743C53.6292 35.8465 53.4351 36.2161 53.241 36.5883C53.0431 36.967 52.8465 37.347 52.6498 37.727C52.6267 37.7711 52.5997 37.8139 52.5676 37.8723C52.317 37.9216 51.0986 39.2535 42.9645 40.3442" fill="#11292F"/>
<path d="M66.8642 28.9811C66.2461 29.614 65.7024 30.1743 65.1549 30.7294C64.5727 31.3182 63.9854 31.9018 63.4032 32.4906C63.0999 32.798 62.9803 32.8097 62.6796 32.5075C61.636 31.4596 60.5988 30.4052 59.5565 29.3559C59.338 29.1368 59.3265 28.9487 59.5565 28.7179C60.6361 27.6414 61.708 26.5585 62.776 25.4704C62.9662 25.2758 63.1487 25.3005 63.3094 25.4574C64.4815 26.6104 65.6459 27.7711 66.8642 28.9811Z" fill="#11292F"/>
<path d="M11.7134 28.9811C11.0952 29.614 10.5515 30.1743 10.004 30.7294C9.42183 31.3182 8.83449 31.9018 8.25229 32.4906C7.94898 32.798 7.82946 32.8097 7.52872 32.5075C6.48513 31.4596 5.44796 30.4052 4.40566 29.3559C4.18717 29.1368 4.1756 28.9487 4.40566 28.7179C5.48523 27.6414 6.5571 26.5585 7.62511 25.4704C7.81532 25.2758 7.99782 25.3005 8.15847 25.4574C9.33058 26.6104 10.495 27.7711 11.7134 28.9811Z" fill="#11292F"/>
<path d="M49.9648 35.5777C48.9354 34.1965 47.023 34.1109 45.4615 34.2418C41.7369 34.5544 37.9301 34.9993 34.1927 34.7191C32.9859 34.6517 31.7508 34.5829 30.5826 34.2587C29.7601 34.0564 28.9401 33.8411 28.1587 33.513C27.66 33.2575 27.2513 33.6556 26.8606 33.9202C26.7231 34.0123 26.5483 34.0071 26.4699 33.8372C26.3979 33.6803 26.538 33.5921 26.6563 33.5259C26.8246 33.4326 26.9814 33.321 27.1459 33.2238C27.5276 32.9955 27.9273 32.7958 28.336 32.622C29.1534 32.2757 30.0132 32.0358 30.8859 31.8775C31.3961 31.7842 31.9128 31.7141 32.4294 31.6765C33.4126 31.6052 34.4112 31.5144 35.4034 31.6259C35.7556 31.6649 36.2568 31.7219 36.6038 31.6467C37.4996 31.4509 38.015 29.3174 38.0394 28.5444C38.0574 27.9868 37.9635 27.8713 37.4456 27.8337C37.0845 27.8078 36.7233 27.7922 36.3622 27.787C34.8675 27.7637 33.3651 27.9051 31.9076 28.2449C29.1213 28.8946 26.353 30.3653 24.9983 33.0214C24.5909 33.8203 24.33 34.6893 24.2028 35.5777C24.348 36.5737 26.164 37.0678 26.9197 37.322C28.3785 37.8123 29.9001 38.1508 31.4218 38.3752C36.1758 39.0768 40.9812 37.8979 45.7532 38.0756C46.0719 38.0872 46.41 38.1625 46.7261 38.1339C47.2813 38.0833 47.7132 37.3169 48.2928 37.7526C48.2607 37.728 47.0988 38.4958 46.969 38.5645C46.5012 38.8109 46.0167 39.0262 45.5219 39.213C44.5374 39.5852 43.5131 39.8407 42.4759 40.0145C40.2268 40.3919 37.9456 40.4243 35.6669 40.3971C33.9267 40.3776 32.1852 40.3335 30.4541 40.1532C29.0905 40.0119 27.7461 39.7304 26.4211 39.3803C25.2053 39.0586 23.9303 38.7305 22.8893 37.9874C20.8574 36.54 19.8472 34.793 19.7431 32.2887C19.603 28.8959 19.8845 25.5693 19.4103 22.1791C19.1661 20.44 18.981 18.3519 17.8307 16.9409C17.3269 16.3222 16.6985 15.9941 15.8888 16.1796C15.7692 16.2081 15.615 16.3469 15.5829 16.4636C15.1575 18.016 14.7526 19.5749 14.3414 21.1312C14.2681 21.4127 14.1962 21.6941 14.1113 22.0183C14.263 21.9963 14.3594 21.982 14.457 21.969C15.1562 21.8744 15.7538 22.0754 16.2525 22.5786C16.5892 22.9184 16.9272 23.2543 17.2729 23.5863C17.6097 23.9105 17.9515 24.2309 18.296 24.5538C18.3885 24.642 18.4026 24.7873 18.3255 24.891C18.2754 24.9584 18.2009 24.9922 18.125 24.9922C18.0556 24.9922 17.9862 24.9636 17.9361 24.9053L17.2524 24.1141C17.4554 24.9753 18.305 27.9569 17.8616 32.9423C17.6726 35.0628 18.2613 35.815 18.2613 35.815C18.3204 35.719 18.3795 35.6153 18.481 35.5673C18.5813 35.5193 18.7329 35.5686 18.7419 35.6801C18.5633 35.9253 18.3859 36.1678 18.2099 36.4116C18.1417 36.505 18.0736 36.5997 18.0402 36.7112C17.9965 36.8564 18.0197 37.0121 18.0441 37.1638C18.296 38.7149 19.0684 40.2816 20.3922 41.1687C21.7545 42.0818 23.4291 42.6265 24.9894 43.083C26.6473 43.5693 28.3515 43.8871 30.0685 44.0609C30.8808 44.1426 31.6969 44.1932 32.513 44.2139C33.2455 44.2321 33.9781 44.2295 34.7107 44.2074C38.876 44.0829 43.3846 44.0064 46.9742 41.5721C47.8584 40.9716 48.6462 40.2129 49.231 39.3102C49.8428 38.3648 50.7578 36.6425 49.9648 35.5777ZM34.4639 27.9466C34.4716 27.9466 34.4793 27.9466 34.4871 27.9453C34.4768 27.9505 34.4678 27.9543 34.4588 27.9595C34.4601 27.9556 34.4626 27.9518 34.4639 27.9466Z" fill="#11292F"/>
<path d="M16.443 34.8136C16.2013 33.4921 15.3492 32.4416 14.6308 31.3469C14.4804 31.12 14.3493 31.0915 14.2041 31.334C13.4793 32.5401 12.9857 33.8332 12.7904 35.2377C12.6619 35.5905 12.9035 35.8252 13.0718 36.0665C13.6708 36.9276 14.2632 37.7875 14.5665 38.8121C14.6488 39.0896 14.7246 39.7614 15.0742 39.2128C15.168 39.065 15.3865 38.5371 15.614 38.6888C15.7978 38.8095 15.8453 39.0053 15.6821 39.231C14.5318 40.8184 13.1515 42.3112 11.297 43.0387C9.37815 43.7923 7.06091 43.5575 5.26033 42.59C4.299 42.0738 3.46361 41.284 2.85571 40.3749C2.26836 39.4994 1.88794 38.493 1.75942 37.4438C1.6656 36.6812 1.71187 35.8784 1.81211 35.1184C1.84681 34.8564 1.86995 34.5919 1.8918 34.326C1.89822 34.243 1.89051 34.1444 1.79798 34.112C1.68359 34.0718 1.61933 34.1535 1.57306 34.2482C1.44968 34.4129 1.36615 34.5945 1.2916 34.7812C1.21835 34.968 1.15537 35.1612 1.07697 35.3467C-0.719751 39.5889 -0.615649 45.1398 4.06252 47.377C6.25894 48.4275 8.85892 48.2887 10.9281 46.9983C13.307 45.5133 14.9714 43.3746 15.9302 40.7069C16.0535 40.3658 16.9789 37.7486 16.4417 34.8136H16.443ZM1.65018 35.5801L1.64504 35.5749H1.65018V35.5801Z" fill="#11292F"/>
<path d="M25.3612 16.9954C25.0167 16.9241 24.5117 16.7438 24.5374 16.3534C24.5695 15.8632 24.2739 15.4767 24.3214 15.0176C24.3279 14.9515 24.3073 14.8684 24.2713 14.8114C23.1455 13.0527 21.6058 11.7818 19.8078 10.752C18.9647 10.2695 18.2617 9.5303 17.5163 8.88443C17.3775 8.76511 17.3338 8.53296 17.2374 8.33453C17.7425 8.29692 17.7322 8.28784 18.1383 7.87023C18.2373 7.76778 18.4223 7.71979 18.5727 7.70423C19.5507 7.60307 20.5314 7.51877 21.5377 7.32293C21.3282 7.23733 21.1251 7.1232 20.9066 7.07003C20.2075 6.90143 19.507 6.72245 18.7989 6.61092C18.1229 6.50457 17.4353 6.48123 16.7528 6.41119C16.6783 6.40341 16.5973 6.34505 16.5408 6.28798C16.3981 6.14532 16.267 5.99099 16.1321 5.84184L16.019 5.90669C16.0498 6.06491 16.082 6.22314 16.1282 6.46047C15.9804 6.38136 15.8313 6.35283 15.7812 6.26464C15.5769 5.90798 15.3687 5.54744 15.2273 5.16355C15.0088 4.56956 14.798 3.98464 14.4279 3.45679C14.2377 3.18574 14.1863 2.81611 14.0719 2.49058C14.0578 2.44908 14.059 2.39721 14.0333 2.36478C13.6709 1.91086 13.3046 1.45823 12.9242 0.98615C13.7519 1.30519 14.5975 1.61646 15.4316 1.95495C16.2902 2.30383 17.1513 2.6527 17.9892 3.04956C19.1228 3.58519 20.1509 4.27256 21.0275 5.19986C21.8037 6.02211 22.5389 6.88457 22.9913 7.91044C23.5863 9.26054 24.0374 10.6755 24.5464 12.0632C24.6029 12.2188 24.6415 12.3809 24.689 12.5405C24.7469 12.5314 24.8034 12.521 24.8612 12.5119C24.833 12.2992 24.8355 12.0762 24.7713 11.8751C24.4076 10.7481 24.112 9.58866 23.6364 8.50962C22.5684 6.08696 20.8951 4.19734 18.5483 2.93024C16.803 1.98738 14.9613 1.29741 13.1003 0.647652C12.9062 0.580212 12.7224 0.484239 12.4937 0.383079C12.5862 0.332499 12.671 0.246902 12.7198 0.265059C13.2404 0.449222 13.676 0.0705199 14.1631 0.0536599C14.6618 0.0380968 15.1592 0.00826745 15.6578 0.00178282C16.001 -0.00340488 16.3454 0.0173459 16.6873 0.0380968C16.7117 0.0393937 16.7297 0.135366 16.7734 0.0549568C17.159 0.0899738 17.5612 0.0679261 17.9275 0.172977C18.5997 0.366219 19.2513 0.632089 19.9106 0.87202C19.9929 0.90185 20.0674 0.955024 20.1252 0.98615C19.8733 1.54383 19.6638 2.00942 19.4158 2.55802C19.5752 2.48929 19.6561 2.4413 19.7435 2.42055C20.2679 2.29605 20.7935 2.17154 21.3218 2.05871C21.5223 2.01591 21.7356 2.02758 21.9297 1.96922C22.3075 1.85639 22.6365 1.91864 22.8756 2.22861C23.4334 2.9497 23.9744 3.68505 24.5129 4.42171C24.5772 4.5086 24.6119 4.64867 24.5991 4.75631C24.5361 5.26601 24.8715 5.50594 25.2121 5.77051C25.1093 6.06621 25.1003 6.43713 25.3946 6.59795C25.8997 6.87419 25.9588 7.36443 26.0655 7.80928C26.3174 8.85979 26.5821 9.91808 26.6978 10.988C26.7968 11.8998 26.9343 12.831 26.6027 13.7596C26.4626 14.1538 26.302 14.6117 26.7325 15.0721C27.181 15.5532 26.9047 16.4974 26.3315 16.8527C26.2081 16.9293 26.0925 17.0162 26.0745 17.0278C26.1452 17.5505 26.248 17.9876 26.2493 18.4246C26.2493 18.7657 26.3187 19.0095 26.6014 19.2093C27.9098 20.1301 28.7876 22.6176 28.0498 24.1337C27.8841 24.4748 27.7774 24.8781 27.5268 25.1388C27.0602 25.6239 25.9819 28.2501 25.9819 28.2501C25.9819 28.2501 24.8265 25.7847 24.3022 25.3333C23.6236 24.7497 23.1339 23.2699 23.5285 22.6163C23.6107 22.4814 23.6981 22.3491 23.7855 22.2129C23.4102 21.7616 23.7971 21.3375 23.9886 20.9977C24.3587 20.3402 24.8895 19.776 25.3008 19.1379C25.4152 18.9602 25.3509 18.6607 25.3548 18.4155C25.3612 17.9473 25.356 17.4792 25.356 16.998L25.3612 16.9954ZM24.6016 23.1169C24.6196 23.2492 24.6299 23.4308 24.6723 23.6032C24.8484 24.3321 26.0231 26.5486 26.0231 26.5486C26.0231 26.5486 27.2183 23.8548 27.3031 23.4424C27.528 22.3387 27.1862 21.3375 26.5114 20.4465C26.1811 20.0108 25.8727 19.9926 25.5347 20.4245C24.9293 21.1987 24.68 22.104 24.6016 23.1156V23.1169ZM25.4164 16.6426C25.6041 16.5104 25.7596 16.4507 25.8329 16.3366C25.9665 16.1278 26.1657 15.8619 26.1246 15.6661C26.0822 15.465 25.8084 15.2575 25.5899 15.1719C25.4833 15.1304 25.216 15.3198 25.1196 15.4689C24.9216 15.775 25.1645 16.4831 25.4152 16.6426H25.4164Z" fill="#EB5A3C"/>
<path d="M26.7853 22.7381C26.7133 22.9236 26.6696 23.1207 26.5629 23.2906C26.446 23.4773 26.2776 23.655 25.9576 23.5928C25.6363 23.5305 25.3716 23.3684 25.3471 23.109C25.3137 22.7575 25.3369 22.3918 25.4242 22.0468C25.4859 21.803 25.6877 21.5799 25.8394 21.353C25.9448 21.196 26.0977 21.1831 26.1967 21.3465C26.4588 21.781 26.7673 22.2076 26.7866 22.7355L26.7853 22.7381Z" fill="#EB5A3C"/>
<path d="M74.8852 21.6563C74.8557 21.6264 74.8248 21.6018 74.8017 21.5707C74.7528 21.5045 74.6873 21.4734 74.6076 21.4669C74.596 21.4669 74.5845 21.4643 74.5716 21.463C74.393 21.4436 74.3557 21.3593 74.4534 21.2075C74.6025 20.9754 74.7541 20.7458 74.8904 20.5059C74.952 20.397 74.988 20.2699 75.0189 20.1466C75.0472 20.0364 75.0009 19.9378 74.9096 19.873C74.8042 19.7991 74.6899 19.7498 74.5549 19.7472C74.3184 19.742 74.0871 19.7822 73.8545 19.8146C73.4753 19.8678 73.1039 19.9547 72.7363 20.0598C72.514 20.1233 72.2955 20.1946 72.0757 20.2673C71.8264 20.3503 71.5797 20.4385 71.3316 20.5254C71.2571 20.5526 71.1825 20.5824 71.1118 20.6187C71.0283 20.6615 70.9795 20.7264 70.9962 20.8327C71.0129 20.943 70.9717 20.9845 70.8535 20.9858C70.5553 20.9884 70.2559 20.9935 69.9577 20.9832C69.6775 20.9728 69.4346 21.0662 69.211 21.2244C69.0298 21.3528 68.8332 21.441 68.6185 21.4968C68.4617 21.5383 68.3114 21.6031 68.1584 21.6563C68.0389 21.6978 67.9194 21.7419 67.7986 21.7808C67.6546 21.8275 67.5094 21.8677 67.3654 21.9144C67.1958 21.9701 67.0274 22.0298 66.8591 22.0881C66.7318 22.1322 66.6033 22.175 66.4748 22.2165C66.3231 22.2658 66.1715 22.3112 66.0198 22.3618C65.57 22.5096 65.1202 22.6601 64.6704 22.8066C64.2809 22.9337 63.8902 23.0595 63.4995 23.1828C63.3132 23.2411 63.1243 23.2878 62.9366 23.3423C62.758 23.3942 62.5793 23.4525 62.4007 23.5057C62.2863 23.5394 62.1706 23.5718 62.0562 23.603C61.8532 23.6587 61.6488 23.7106 61.4458 23.769C61.271 23.8195 61.0975 23.874 60.9227 23.9272C60.9111 23.9311 60.9008 23.935 60.8893 23.9389C60.7055 23.9868 60.5191 24.0322 60.3366 24.0841C60.149 24.1373 59.9639 24.197 59.7776 24.2527C59.7326 24.2657 59.685 24.2735 59.6388 24.2864C59.5668 24.3072 59.4948 24.3292 59.4228 24.35C59.4036 24.3552 59.3869 24.3656 59.3676 24.372C59.2031 24.4187 59.0373 24.4602 58.8741 24.5108C58.7185 24.5601 58.5669 24.6185 58.414 24.6729C58.3985 24.6781 58.3844 24.6872 58.369 24.6911C58.1749 24.7339 57.9808 24.7767 57.7868 24.8182C57.6891 24.8389 57.5927 24.8584 57.495 24.8778C57.2843 24.9193 57.0735 24.9634 56.8627 25.0036C56.08 25.1515 55.2986 25.3006 54.5146 25.4433C54.1625 25.5081 53.8078 25.5574 53.4543 25.6158C53.1202 25.6703 52.7886 25.7325 52.4531 25.7792C52.1061 25.8272 51.7578 25.8648 51.4096 25.8933C51.1165 25.918 50.8209 25.9219 50.5279 25.94C50.2824 25.9556 50.037 25.9776 49.7915 25.9971C49.7722 25.9984 49.7516 26.0023 49.7324 26.0036C49.4856 26.0101 49.2401 26.0165 48.9934 26.0217C48.7903 26.0256 48.5885 26.0334 48.3893 26.0853C48.2377 26.1242 48.0834 26.1268 47.9331 26.0593C47.8174 26.0062 47.703 26.0178 47.5861 26.0658C47.5102 26.0969 47.4267 26.1242 47.3457 26.1255C47.0321 26.1307 46.7172 26.1333 46.4062 26.0736C46.387 26.0697 46.3664 26.0684 46.3471 26.0671C46.0258 26.0529 45.7032 26.0425 45.3819 26.023C45.1159 26.0062 44.8511 25.9802 44.5851 25.9569C44.3795 25.9387 44.1725 25.9258 43.9669 25.8985C43.4978 25.835 43.0287 25.7701 42.5609 25.6936C42.3141 25.6534 42.0712 25.5886 41.827 25.5367C41.7448 25.5198 41.6625 25.5094 41.5816 25.4887C41.3695 25.4355 41.1549 25.3862 40.9467 25.3227C40.7243 25.2552 40.529 25.1294 40.3298 25.0127C40.0316 24.8363 39.7347 24.6587 39.434 24.4888C39.1769 24.3448 38.9289 24.1866 38.6847 24.0206C38.4354 23.8494 38.1796 23.686 37.929 23.5174C37.7632 23.4058 37.6013 23.2904 37.4367 23.1789C37.1861 23.009 36.9329 22.8443 36.6849 22.6705C36.4934 22.5356 36.2878 22.4176 36.1335 22.2347C36.0898 22.1828 36.0461 22.1322 35.9999 22.0778C36.0359 22.0155 36.0924 21.9948 36.1515 21.9935C36.2865 21.9909 36.4214 21.9987 36.5564 22C36.8057 22.0038 37.0448 22.0635 37.2812 22.1374C37.3943 22.1724 37.5049 22.2217 37.6103 22.2775C37.785 22.3683 37.9598 22.4396 38.159 22.4617C38.4469 22.4941 38.7322 22.5589 39.0176 22.6082C39.2013 22.6406 39.3864 22.6679 39.5702 22.7042C39.9301 22.7742 40.2886 22.8456 40.6472 22.9208C40.795 22.9519 40.9402 22.9947 41.088 23.0297C41.3399 23.0907 41.5893 23.162 41.8437 23.2061C42.1766 23.2632 42.5133 23.2995 42.8488 23.3436C43.0737 23.3734 43.2986 23.4032 43.5235 23.424C43.7973 23.4486 44.071 23.4668 44.3448 23.4823C44.7303 23.5057 45.1146 23.5213 45.5002 23.5459C45.7109 23.5589 45.9204 23.5835 46.1299 23.6043C46.1543 23.6068 46.1775 23.6094 46.2019 23.6107C46.8021 23.6198 47.4036 23.6393 48.0037 23.6354C48.3816 23.6341 48.7595 23.6081 49.1347 23.5783C49.5666 23.5446 49.9971 23.4979 50.4289 23.4499C50.9867 23.3877 51.5419 23.3137 52.101 23.2567C52.3503 23.2307 52.6022 23.2424 52.8516 23.2243C53.0778 23.2087 53.3027 23.1841 53.5276 23.1516C53.8026 23.1114 54.0777 23.0647 54.3501 23.0103C54.8655 22.9052 55.3783 22.7911 55.8924 22.6808C56.3126 22.5914 56.7329 22.5006 57.1532 22.4111C57.468 22.3436 57.7842 22.2775 58.0978 22.2075C58.3188 22.1582 58.5373 22.0972 58.7571 22.0466C58.9897 21.9935 59.2236 21.9494 59.4563 21.8962C59.6696 21.8469 59.8804 21.7899 60.0924 21.7367C60.1464 21.7237 60.2017 21.712 60.2544 21.6978C60.3379 21.6757 60.4227 21.6511 60.5063 21.6277C60.5217 21.6238 60.5358 21.6161 60.5513 21.6122C60.7248 21.5681 60.8996 21.5292 61.0705 21.4812C61.2581 21.428 61.4419 21.3671 61.6283 21.3087C61.7722 21.2633 61.9162 21.2179 62.0601 21.1738C62.2465 21.1168 62.4315 21.0597 62.6179 21.0026C62.7772 20.9533 62.9379 20.9041 63.0973 20.8561C63.3068 20.7925 63.515 20.7277 63.7244 20.6654C64.0213 20.5759 64.3195 20.4877 64.6164 20.397C65.0392 20.2673 65.4608 20.1363 65.8836 20.0066C66.0661 19.9508 66.2499 19.8963 66.4311 19.8406C66.5262 19.8107 66.62 19.7783 66.7138 19.7459C66.9799 19.6525 67.2459 19.5578 67.512 19.4632C67.6058 19.4295 67.6983 19.3957 67.7908 19.3594C68.0209 19.2699 68.2497 19.1804 68.4797 19.091C68.6134 19.0391 68.7445 18.9846 68.8781 18.9327C68.9193 18.9172 68.9617 18.9055 69.0041 18.8964C69.2226 18.8549 69.4411 18.8043 69.666 18.8095C69.8498 18.8134 70.0027 18.7421 70.1492 18.6357C70.3111 18.5177 70.4949 18.4412 70.6813 18.3686C70.8561 18.3011 71.0322 18.2389 71.2082 18.1779C71.5732 18.0534 71.9395 17.9315 72.3045 17.807C72.4819 17.7473 72.6579 17.6825 72.8353 17.6267C73.0666 17.5541 73.2967 17.4737 73.5332 17.4192C73.9059 17.3336 74.2812 17.2675 74.6642 17.2454C75.0304 17.2234 75.3954 17.2026 75.7617 17.2143C75.9121 17.2195 76.0663 17.235 76.2077 17.2791C76.412 17.344 76.565 17.4905 76.6524 17.6903C76.7064 17.8135 76.7513 17.9458 76.777 18.0781C76.8285 18.3543 76.8426 18.6344 76.8143 18.9172C76.7899 19.1558 76.7128 19.3776 76.6087 19.5916C76.3915 20.0325 76.0972 20.4216 75.7926 20.8016C75.6152 21.0221 75.407 21.2153 75.1834 21.393C75.0806 21.4747 74.988 21.5681 74.8826 21.6628L74.8852 21.6563ZM69.8575 20.1026C69.8163 20.1648 69.8279 20.2245 69.8382 20.2815C69.8433 20.3062 69.8716 20.3438 69.8922 20.3451C69.9166 20.3464 69.95 20.3217 69.9654 20.2984C70.013 20.2245 69.968 20.1428 69.8575 20.1026Z" fill="#EB5A3C"/>
<path d="M74.7075 21.8607C74.6908 21.9165 74.6882 21.9619 74.6663 21.9943C74.6226 22.0604 74.5712 22.1214 74.5185 22.1823C74.2564 22.4845 73.9955 22.7854 73.732 23.085C73.5983 23.238 73.4608 23.3898 73.3259 23.5402C73.2989 23.5701 73.2706 23.5986 73.2423 23.6258C73.2153 23.6518 73.1819 23.6803 73.1498 23.6479C73.1241 23.6232 73.0971 23.5804 73.101 23.5493C73.1112 23.4546 73.1267 23.3574 73.1562 23.2666C73.2822 22.8866 73.4724 22.5416 73.7371 22.242C73.8194 22.1499 73.9004 22.0591 74.0109 21.9956C74.0996 21.945 74.1908 21.9139 74.2911 21.9035C74.3862 21.8931 74.4787 21.8737 74.5738 21.8607C74.6111 21.8555 74.6496 21.8607 74.7088 21.8607H74.7075Z" fill="#EB5A3C"/>
</g>
<defs>
<clipPath id="clip0_738_2183">
<rect width="77.3902" height="48.0758" fill="white"/>
</clipPath>
</defs>
</svg>
